<svg width="300" height="300" viewBox="0 0 300 300" fill="none" xmlns="http://www.w3.org/2000/svg">
<rect width="300" height="300" fill="white"/>
<path d="M118.793 230.607C118.793 233.866 116.815 236.8 113.794 238.023L68.0003 256.55C62.7413 258.677 57 254.807 57 249.133L57 86.3933C57 83.1336 58.9778 80.1998 61.9996 78.9773L107.793 60.4505C113.052 58.3228 118.793 62.1933 118.793 67.8665L118.793 230.607Z" fill="#1F1F1F"/>
<path d="M150 119.603L99.4828 159.674C89.9197 144.202 140.437 104.132 150 119.603Z" fill="#FFFAFA"/>
<path d="M140 86.4001C140 83.1369 141.982 80.2009 145.008 78.9805L191.008 60.4322C196.266 58.3121 202 62.1825 202 67.8517V230.6C202 233.863 200.018 236.799 196.992 238.019L150.992 256.568C145.734 258.688 140 254.818 140 249.148V86.4001Z" fill="#7FBF2F"/>
<path d="M57 170.5L154 125V170.5L57 216V170.5Z" fill="#1F1F1F"/>
<path d="M150.5 113C133.071 113 120 128.957 120 148.106C120 162.468 130.167 172.043 134.524 180.021V188H166.476V180.021C170.833 172.043 181 162.468 181 148.106C181 128.957 167.929 113 150.5 113Z" fill="white"/>
<path d="M150 205C159.714 205 167 197.766 167 189.085C167 182.574 161.333 178.234 158.905 174.617V171H141.095V174.617C138.667 178.234 133 182.574 133 189.085C133 197.766 140.286 205 150 205Z" fill="white"/>
<path d="M150.5 120C136.088 120 126 131.8 126 148.025C126 159.825 134.647 167.2 138.971 173.1V179H162.029V173.1C166.353 167.2 175 159.825 175 148.025C175 131.8 164.912 120 150.5 120Z" fill="#FFD91A"/>
<path d="M148 133.083C152.498 132.53 156.979 133.357 160.457 135.38C163.934 137.404 166.123 140.458 166.542 143.872" stroke="white" stroke-width="3" stroke-linecap="round"/>
<path d="M159.125 182H141.875C140.839 182 140 182.796 140 183.778C140 184.76 140.839 185.556 141.875 185.556H159.125C160.161 185.556 161 184.76 161 183.778C161 182.796 160.161 182 159.125 182Z" fill="#1F1F1F"/>
<path d="M159.125 188.4H141.875C140.839 188.4 140 189.196 140 190.178C140 191.16 140.839 191.956 141.875 191.956H159.125C160.161 191.956 161 191.16 161 190.178C161 189.196 160.161 188.4 159.125 188.4Z" fill="#1F1F1F"/>
<path d="M141.5 194.8H159.5C159.5 199.067 141.5 199.067 141.5 194.8Z" fill="#1F1F1F"/>
<path d="M172.437 110.564L177.89 94.41" stroke="white" stroke-width="8" stroke-linecap="round"/>
<path d="M174.142 107.127L179.725 92" stroke="#FFD91A" stroke-width="4" stroke-linecap="round"/>
<path d="M184.113 118.819L214.093 92" stroke="white" stroke-width="12" stroke-linecap="round"/>
<path d="M184.988 118.182L211.324 96.31" stroke="#FFD91A" stroke-width="8" stroke-linecap="round"/>
<path d="M188.238 135.79L195.798 138.517" stroke="white" stroke-width="10" stroke-linecap="round"/>
<path d="M188 136.265L197.1 139.338" stroke="#FFD91A" stroke-width="6" stroke-linecap="round"/>
</svg>
