<svg width="696" height="676" viewBox="0 0 696 676" fill="none" xmlns="http://www.w3.org/2000/svg">
<rect width="696" height="676" fill="white"/>
<g filter="url(#filter0_di_0_1)">
<ellipse cx="355.5" cy="334" rx="336.5" ry="334" fill="white"/>
</g>
<path d="M126.674 393.749C126.674 396.937 124.781 399.821 121.855 401.089L80.1817 419.153C74.8991 421.443 69 417.571 69 411.813L69 249.251C69 246.063 70.893 243.179 73.8183 241.911L115.492 223.847C120.775 221.557 126.674 225.429 126.674 231.187L126.674 393.749Z" fill="#1F1F1F"/>
<path d="M155.8 282.603L108.651 322.674C99.7251 307.202 146.874 267.132 155.8 282.603Z" fill="#FFFAFA"/>
<path d="M146.467 249.258C146.467 246.067 148.364 243.18 151.294 241.915L193.161 223.827C198.442 221.545 204.333 225.418 204.333 231.171V393.742C204.333 396.933 202.436 399.82 199.506 401.086L157.639 419.173C152.358 421.455 146.467 417.582 146.467 411.829V249.258Z" fill="#7FBF2F"/>
<path d="M69 333.5L159.533 288V333.5L69 379V333.5Z" fill="#1F1F1F"/>
<path d="M156.267 276C140 276 127.8 291.957 127.8 311.106C127.8 325.468 137.289 335.043 141.356 343.021V351H171.178V343.021C175.244 335.043 184.733 325.468 184.733 311.106C184.733 291.957 172.533 276 156.267 276Z" fill="white"/>
<path d="M155.8 368C164.867 368 171.667 360.766 171.667 352.085C171.667 345.574 166.378 341.234 164.111 337.617V334H147.489V337.617C145.222 341.234 139.933 345.574 139.933 352.085C139.933 360.766 146.733 368 155.8 368Z" fill="white"/>
<path d="M156.267 283C142.816 283 133.4 294.8 133.4 311.025C133.4 322.825 141.471 330.2 145.506 336.1V342H167.027V336.1C171.063 330.2 179.133 322.825 179.133 311.025C179.133 294.8 169.718 283 156.267 283Z" fill="#FFD91A"/>
<path d="M153.933 296.083C158.132 295.53 162.314 296.357 165.559 298.38C168.805 300.404 170.848 303.458 171.239 306.872" stroke="white" stroke-width="3" stroke-linecap="round"/>
<path d="M164.317 345H148.217C147.25 345 146.467 345.796 146.467 346.778C146.467 347.76 147.25 348.556 148.217 348.556H164.317C165.283 348.556 166.067 347.76 166.067 346.778C166.067 345.796 165.283 345 164.317 345Z" fill="#1F1F1F"/>
<path d="M164.317 351.4H148.217C147.25 351.4 146.467 352.196 146.467 353.178C146.467 354.16 147.25 354.956 148.217 354.956H164.317C165.283 354.956 166.067 354.16 166.067 353.178C166.067 352.196 165.283 351.4 164.317 351.4Z" fill="#1F1F1F"/>
<path d="M147.867 357.8H164.667C164.667 362.067 147.867 362.067 147.867 357.8Z" fill="#1F1F1F"/>
<path d="M176.598 273.564L181.973 257.41" stroke="white" stroke-width="8" stroke-linecap="round"/>
<path d="M178.279 270.127L183.597 255" stroke="#FFD91A" stroke-width="4" stroke-linecap="round"/>
<path d="M187.483 281.819L215.775 255" stroke="white" stroke-width="12" stroke-linecap="round"/>
<path d="M188.414 281.182L213.078 259.31" stroke="#FFD91A" stroke-width="8" stroke-linecap="round"/>
<path d="M191.489 298.903L198.545 301.404" stroke="white" stroke-width="10" stroke-linecap="round"/>
<path d="M191.267 299.388L199.76 302.215" stroke="#FFD91A" stroke-width="6" stroke-linecap="round"/>
<path d="M251.258 400C250.327 400 249.699 399.595 249.375 398.785C249.253 398.542 249.192 398.278 249.192 397.995V368.587C249.192 367.656 249.618 367.028 250.468 366.704C250.711 366.623 250.975 366.582 251.258 366.582H259.218C268.089 366.582 273.678 369.762 275.987 376.122C276.757 378.228 277.142 380.658 277.142 383.413C277.142 386.127 276.737 388.516 275.927 390.582C275.157 392.648 274.003 394.37 272.463 395.747C269.344 398.582 264.97 400 259.339 400H251.258ZM253.324 396.719H259.765C264.18 396.719 267.481 395.504 269.668 393.073C271.694 390.886 272.706 387.625 272.706 383.291C272.706 378.835 271.451 375.453 268.939 373.144C266.63 370.957 263.208 369.863 258.671 369.863H253.324V396.719ZM284.876 368.587C284.876 367.615 285.322 366.987 286.213 366.704C286.456 366.623 286.78 366.582 287.185 366.582C287.59 366.582 287.995 366.744 288.4 367.068C288.846 367.392 289.069 367.899 289.069 368.587V398.056C289.069 398.987 288.623 399.595 287.732 399.878C287.489 399.959 287.165 400 286.76 400C286.355 400 285.93 399.838 285.484 399.514C285.079 399.19 284.876 398.704 284.876 398.056V368.587ZM303.916 393.438C304.888 394.613 306.144 395.524 307.683 396.172C309.263 396.82 311.146 397.144 313.334 397.144C315.521 397.144 317.992 396.8 320.746 396.111V385.904H314.124C313.597 385.904 313.192 385.742 312.908 385.418C312.665 385.094 312.544 384.729 312.544 384.324C312.544 383.919 312.665 383.554 312.908 383.23C313.151 382.906 313.556 382.744 314.124 382.744H323.116C323.683 382.744 324.108 382.906 324.392 383.23C324.716 383.554 324.878 383.98 324.878 384.506V396.78C324.878 397.873 324.351 398.562 323.298 398.846C319.774 399.939 316.574 400.486 313.698 400.486C310.822 400.486 308.392 400.162 306.407 399.514C304.422 398.825 302.721 397.772 301.303 396.354C298.265 393.316 296.746 388.962 296.746 383.291C296.746 378.633 298.103 374.684 300.817 371.443C303.774 368 307.926 366.278 313.273 366.278C316.635 366.278 319.754 366.846 322.63 367.98C323.237 368.223 323.541 368.628 323.541 369.195C323.541 369.762 323.399 370.228 323.116 370.592C322.873 370.957 322.529 371.139 322.083 371.139H321.901C321.82 371.139 321.577 371.078 321.172 370.957C320.807 370.835 320.26 370.714 319.531 370.592C318.843 370.43 318.154 370.309 317.465 370.228C315.886 369.985 314.549 369.863 313.455 369.863C309.283 369.863 306.124 371.241 303.977 373.995C303.005 375.251 302.296 376.729 301.85 378.43C301.405 380.132 301.182 381.894 301.182 383.716C301.182 385.539 301.405 387.322 301.85 389.063C302.296 390.765 302.984 392.223 303.916 393.438ZM333.814 368.587C333.814 367.615 334.259 366.987 335.151 366.704C335.394 366.623 335.718 366.582 336.123 366.582C336.528 366.582 336.933 366.744 337.338 367.068C337.784 367.392 338.006 367.899 338.006 368.587V398.056C338.006 398.987 337.561 399.595 336.67 399.878C336.427 399.959 336.102 400 335.697 400C335.292 400 334.867 399.838 334.421 399.514C334.016 399.19 333.814 398.704 333.814 398.056V368.587ZM345.198 369.985C344.631 369.985 344.185 369.823 343.861 369.499C343.577 369.134 343.436 368.729 343.436 368.284C343.436 367.838 343.577 367.453 343.861 367.129C344.185 366.765 344.631 366.582 345.198 366.582H367.557C368.165 366.582 368.61 366.765 368.894 367.129C369.177 367.453 369.319 367.838 369.319 368.284C369.319 368.689 369.177 369.073 368.894 369.438C368.61 369.803 368.165 369.985 367.557 369.985H358.565V397.995C358.565 398.967 358.119 399.595 357.228 399.878C356.985 399.959 356.661 400 356.256 400C355.891 400 355.486 399.838 355.041 399.514C354.595 399.149 354.372 398.643 354.372 397.995V369.985H345.198ZM401.274 397.448C401.355 397.732 401.395 397.995 401.395 398.238C401.395 398.441 401.314 398.663 401.152 398.906C401.031 399.149 400.869 399.352 400.666 399.514C400.261 399.838 399.816 400 399.329 400C398.357 400 397.709 399.595 397.385 398.785L394.408 391.251H377.821L374.843 398.785C374.56 399.595 373.993 400 373.142 400C372.251 400 371.623 399.635 371.259 398.906C371.137 398.663 371.076 398.441 371.076 398.238C371.076 397.995 371.117 397.732 371.198 397.448L382.317 370.228C383.086 368.122 384.018 366.947 385.112 366.704C385.436 366.623 385.8 366.582 386.205 366.582C387.056 366.582 387.684 366.744 388.089 367.068C388.859 367.757 389.507 368.81 390.033 370.228L401.274 397.448ZM379.036 388.091H393.254L386.145 370.046L379.036 388.091ZM409.184 400C408.252 400 407.604 399.595 407.239 398.785C407.118 398.501 407.057 398.218 407.057 397.934V368.527C407.057 367.595 407.503 366.987 408.394 366.704C408.637 366.623 408.961 366.582 409.366 366.582C409.771 366.582 410.176 366.744 410.581 367.068C411.027 367.392 411.249 367.878 411.249 368.527V396.597H426.378C426.986 396.597 427.432 396.78 427.715 397.144C427.999 397.468 428.141 397.853 428.141 398.299C428.141 398.704 427.999 399.089 427.715 399.453C427.432 399.818 426.986 400 426.378 400H409.184ZM450.295 375.028C450.295 375.919 450.558 376.729 451.084 377.458C451.652 378.187 452.381 378.815 453.272 379.342C454.163 379.828 455.176 380.253 456.31 380.618C457.444 380.982 458.639 381.367 459.895 381.772C461.191 382.177 462.426 382.623 463.601 383.109C464.816 383.595 465.89 384.203 466.821 384.932C468.846 386.511 469.859 388.678 469.859 391.433C469.859 392.729 469.535 393.965 468.887 395.139C468.279 396.273 467.409 397.246 466.274 398.056C464.006 399.676 461.029 400.486 457.343 400.486C453.576 400.486 450.436 399.595 447.925 397.813C446.386 396.8 445.576 396.091 445.495 395.686C445.454 395.524 445.434 395.362 445.434 395.2C445.434 394.997 445.474 394.775 445.555 394.532C445.636 394.289 445.738 394.086 445.859 393.924C446.224 393.478 446.548 393.256 446.831 393.256C447.155 393.256 447.459 393.357 447.743 393.559C448.026 393.762 448.35 394.005 448.715 394.289C449.12 394.572 449.606 394.896 450.173 395.261C450.781 395.625 451.449 395.949 452.178 396.233C453.798 396.8 455.358 397.084 456.857 397.084C458.396 397.084 459.652 396.982 460.624 396.78C461.636 396.537 462.507 396.172 463.236 395.686C464.776 394.633 465.545 393.296 465.545 391.676C465.545 388.881 463.52 386.856 459.469 385.6C458.335 385.235 457.14 384.871 455.884 384.506C454.669 384.101 453.454 383.635 452.239 383.109C451.024 382.582 449.95 381.954 449.019 381.225C448.087 380.496 447.338 379.625 446.771 378.613C446.244 377.559 445.981 376.385 445.981 375.089C445.981 373.792 446.305 372.577 446.953 371.443C447.601 370.309 448.452 369.377 449.505 368.648C451.692 367.068 454.386 366.278 457.586 366.278C462.163 366.278 465.869 367.777 468.705 370.775C468.907 370.977 469.009 371.241 469.009 371.565C469.009 371.889 468.968 372.152 468.887 372.354C468.846 372.557 468.765 372.739 468.644 372.901C468.36 373.306 467.976 373.509 467.49 373.509C467.003 373.509 466.477 373.225 465.91 372.658C464.654 371.727 463.601 371.078 462.75 370.714C461.252 370.106 459.652 369.803 457.95 369.803C455.925 369.803 454.203 370.228 452.786 371.078C451.125 372.01 450.295 373.327 450.295 375.028ZM474.76 369.985C474.193 369.985 473.748 369.823 473.424 369.499C473.14 369.134 472.998 368.729 472.998 368.284C472.998 367.838 473.14 367.453 473.424 367.129C473.748 366.765 474.193 366.582 474.76 366.582H497.12C497.727 366.582 498.173 366.765 498.456 367.129C498.74 367.453 498.882 367.838 498.882 368.284C498.882 368.689 498.74 369.073 498.456 369.438C498.173 369.803 497.727 369.985 497.12 369.985H488.127V397.995C488.127 398.967 487.682 399.595 486.791 399.878C486.548 399.959 486.224 400 485.818 400C485.454 400 485.049 399.838 484.603 399.514C484.158 399.149 483.935 398.643 483.935 397.995V369.985H474.76ZM503.92 368.587C503.92 367.615 504.345 366.987 505.196 366.704C505.479 366.623 505.824 366.582 506.229 366.582C506.634 366.582 507.039 366.744 507.444 367.068C507.889 367.392 508.112 367.899 508.112 368.587V388.273C508.112 391.109 509.044 393.337 510.907 394.957C512.487 396.375 514.492 397.084 516.922 397.084C519.353 397.084 521.398 396.375 523.059 394.957C524.922 393.377 525.854 391.149 525.854 388.273V368.587C525.854 367.615 526.3 366.987 527.191 366.704C527.434 366.623 527.738 366.582 528.102 366.582C528.507 366.582 528.912 366.744 529.317 367.068C529.763 367.392 529.986 367.899 529.986 368.587V388.395C529.986 392.203 528.649 395.241 525.976 397.509C523.667 399.494 520.649 400.486 516.922 400.486C513.236 400.486 510.219 399.494 507.869 397.509C505.236 395.241 503.92 392.203 503.92 388.395V368.587ZM540.618 400C539.686 400 539.058 399.595 538.734 398.785C538.613 398.542 538.552 398.278 538.552 397.995V368.587C538.552 367.656 538.977 367.028 539.828 366.704C540.071 366.623 540.334 366.582 540.618 366.582H548.577C557.448 366.582 563.038 369.762 565.347 376.122C566.116 378.228 566.501 380.658 566.501 383.413C566.501 386.127 566.096 388.516 565.286 390.582C564.516 392.648 563.362 394.37 561.823 395.747C558.704 398.582 554.329 400 548.699 400H540.618ZM542.683 396.719H549.124C553.539 396.719 556.84 395.504 559.028 393.073C561.053 390.886 562.066 387.625 562.066 383.291C562.066 378.835 560.81 375.453 558.299 373.144C555.99 370.957 552.567 369.863 548.03 369.863H542.683V396.719ZM574.236 368.587C574.236 367.615 574.681 366.987 575.572 366.704C575.816 366.623 576.14 366.582 576.545 366.582C576.95 366.582 577.355 366.744 577.76 367.068C578.205 367.392 578.428 367.899 578.428 368.587V398.056C578.428 398.987 577.983 399.595 577.091 399.878C576.848 399.959 576.524 400 576.119 400C575.714 400 575.289 399.838 574.843 399.514C574.438 399.19 574.236 398.704 574.236 398.056V368.587ZM591.331 378.43C590.926 380.132 590.723 381.792 590.723 383.413C590.723 385.033 590.926 386.694 591.331 388.395C591.777 390.096 592.445 391.595 593.336 392.891C594.268 394.147 595.442 395.18 596.86 395.99C598.278 396.759 599.979 397.144 601.964 397.144C603.949 397.144 605.65 396.759 607.068 395.99C608.485 395.18 609.66 394.147 610.592 392.891C611.523 391.595 612.192 390.096 612.597 388.395C613.002 386.694 613.204 385.033 613.204 383.413C613.204 381.792 613.002 380.132 612.597 378.43C612.192 376.729 611.523 375.23 610.592 373.934C609.66 372.638 608.485 371.605 607.068 370.835C605.65 370.066 603.949 369.681 601.964 369.681C599.979 369.681 598.278 370.066 596.86 370.835C595.442 371.605 594.268 372.638 593.336 373.934C592.445 375.23 591.777 376.729 591.331 378.43ZM586.227 383.413C586.227 381.023 586.572 378.754 587.26 376.608C587.949 374.461 588.961 372.618 590.298 371.078C593.134 367.878 597.022 366.278 601.964 366.278C606.946 366.278 610.835 367.878 613.63 371.078C614.926 372.618 615.918 374.461 616.607 376.608C617.296 378.754 617.64 381.023 617.64 383.413C617.64 385.803 617.296 388.071 616.607 390.218C615.918 392.365 614.926 394.208 613.63 395.747C610.835 398.906 606.946 400.486 601.964 400.486C596.982 400.486 593.093 398.906 590.298 395.747C588.961 394.208 587.949 392.365 587.26 390.218C586.572 388.071 586.227 385.803 586.227 383.413Z" fill="#707070"/>
<path d="M247.68 345V251.304H265.6V291.496H297.728V251.304H315.648V345H297.728V307.88H265.6V345H247.68ZM326.111 311.976C326.111 304.979 326.623 299.219 327.647 294.696C328.671 290.173 330.463 286.547 333.023 283.816C335.583 281.085 338.74 279.165 342.495 278.056C346.335 276.947 351.199 276.392 357.087 276.392C368.778 276.392 376.842 278.952 381.279 284.072C385.802 289.192 388.063 298.493 388.063 311.976C388.063 324.691 385.844 333.48 381.407 338.344C377.055 343.208 368.948 345.64 357.087 345.64C352.394 345.64 348.298 345.256 344.799 344.488C341.386 343.635 338.442 342.397 335.967 340.776C333.578 339.155 331.658 337.021 330.207 334.376C328.756 331.645 327.69 328.488 327.007 324.904C326.41 321.235 326.111 316.925 326.111 311.976ZM344.031 311.976C344.031 316.328 344.244 319.784 344.671 322.344C345.098 324.904 345.866 326.867 346.975 328.232C348.17 329.512 349.492 330.323 350.943 330.664C352.394 331.005 354.442 331.176 357.087 331.176C359.391 331.176 361.14 331.091 362.335 330.92C363.615 330.749 364.81 330.323 365.919 329.64C367.114 328.957 367.967 327.891 368.479 326.44C369.076 324.989 369.503 323.155 369.759 320.936C370.015 318.632 370.143 315.645 370.143 311.976C370.143 308.051 370.015 304.893 369.759 302.504C369.588 300.029 369.247 297.981 368.735 296.36C368.223 294.653 367.412 293.459 366.303 292.776C365.194 292.008 363.956 291.496 362.591 291.24C361.226 290.899 359.391 290.728 357.087 290.728C355.21 290.728 353.674 290.813 352.479 290.984C351.284 291.155 350.132 291.539 349.023 292.136C347.914 292.648 347.06 293.373 346.463 294.312C345.951 295.165 345.482 296.403 345.055 298.024C344.628 299.645 344.33 301.565 344.159 303.784C344.074 306.003 344.031 308.733 344.031 311.976ZM398.76 320.808V244.776H416.68V317.992C416.68 322.515 417.149 325.672 418.088 327.464C419.027 329.256 420.52 330.536 422.568 331.304C427.688 333.096 430.547 333.992 431.144 333.992V345H416.296C413.48 345 411.005 344.573 408.872 343.72C406.739 342.867 404.904 341.544 403.368 339.752C401.832 337.875 400.68 335.357 399.912 332.2C399.144 329.043 398.76 325.245 398.76 320.808Z" fill="#2B2B2B"/>
<path d="M437.477 251.304H456.549L477.413 321.448L499.429 251.304H518.501L487.653 345H466.917L437.477 251.304ZM524.59 327.72V321.32C524.59 318.675 524.931 316.285 525.614 314.152C526.382 312.019 527.534 310.056 529.07 308.264C530.606 306.472 532.654 305.107 535.214 304.168C537.859 303.144 540.974 302.632 544.558 302.632C547.886 302.632 551.171 302.675 554.414 302.76C557.742 302.76 561.113 302.717 564.526 302.632C564.611 299.816 564.611 298.365 564.526 298.28C564.526 296.488 564.313 295.037 563.886 293.928C563.545 292.819 562.947 291.965 562.094 291.368C561.241 290.771 560.302 290.387 559.278 290.216C558.254 290.045 556.974 289.96 555.438 289.96C549.891 289.96 540.377 290.429 526.894 291.368V280.36C534.489 277.373 544.814 275.837 557.87 275.752C565.721 275.752 571.779 277.416 576.046 280.744C580.313 283.987 582.446 289.619 582.446 297.64V345H568.238L564.526 337.576C564.185 338.173 563.075 339.112 561.198 340.392C559.406 341.587 556.846 342.824 553.518 344.104C550.19 345.299 546.947 345.853 543.79 345.768C537.646 345.597 532.91 343.763 529.582 340.264C526.254 336.68 524.59 332.499 524.59 327.72ZM542.51 325.16C542.51 327.72 543.065 329.427 544.174 330.28C545.283 331.048 546.862 331.432 548.91 331.432C549.934 331.432 551.001 331.347 552.11 331.176C553.219 330.92 554.243 330.664 555.182 330.408C556.206 330.067 557.187 329.725 558.126 329.384C559.065 328.957 559.918 328.573 560.686 328.232C561.454 327.805 562.094 327.464 562.606 327.208C563.203 326.867 563.673 326.611 564.014 326.44C564.355 326.184 564.526 326.056 564.526 326.056V313.64L548.014 314.92C546.905 315.005 545.966 315.304 545.198 315.816C544.43 316.243 543.833 316.797 543.406 317.48C543.065 318.163 542.809 318.845 542.638 319.528C542.553 320.211 542.51 320.979 542.51 321.832V325.16ZM590.965 300.584V294.696C590.965 282.493 596.853 276.392 608.629 276.392C628.853 276.392 640.97 277.544 644.981 279.848V291.112H614.133C613.024 291.112 612.085 291.197 611.317 291.368C610.634 291.539 610.122 291.837 609.781 292.264C609.44 292.691 609.184 293.16 609.013 293.672C608.928 294.184 608.885 294.909 608.885 295.848V298.92C608.885 300.883 609.312 302.12 610.165 302.632C611.018 303.059 612.341 303.272 614.133 303.272H630.261C633.418 303.272 636.149 303.741 638.453 304.68C640.842 305.533 642.72 306.771 644.085 308.392C645.536 310.013 646.602 311.891 647.285 314.024C647.968 316.072 648.309 318.333 648.309 320.808V327.848C648.309 338.088 644 343.933 635.381 345.384C634.186 345.555 632.949 345.64 631.669 345.64C610.165 345.64 597.536 344.403 593.781 341.928V330.792H625.909C628.896 330.792 630.389 329.341 630.389 326.44V323.24C630.389 322.216 630.261 321.405 630.005 320.808C629.834 320.211 629.408 319.741 628.725 319.4C628.042 319.059 627.104 318.888 625.909 318.888H610.037C603.808 318.888 599.072 317.437 595.829 314.536C592.586 311.635 590.965 306.984 590.965 300.584Z" fill="#79B928"/>
<defs>
<filter id="filter0_di_0_1" x="15" y="0" width="681" height="676" filterUnits="userSpaceOnUse" color-interpolation-filters="sRGB">
<feFlood flood-opacity="0" result="BackgroundImageFix"/>
<feColorMatrix in="SourceAlpha" type="matrix" values="0 0 0 0 0 0 0 0 0 0 0 0 0 0 0 0 0 0 127 0" result="hardAlpha"/>
<feOffset dy="4"/>
<feGaussianBlur stdDeviation="2"/>
<feComposite in2="hardAlpha" operator="out"/>
<feColorMatrix type="matrix" values="0 0 0 0 0 0 0 0 0 0 0 0 0 0 0 0 0 0 0.25 0"/>
<feBlend mode="normal" in2="BackgroundImageFix" result="effect1_dropShadow_0_1"/>
<feBlend mode="normal" in="SourceGraphic" in2="effect1_dropShadow_0_1" result="shape"/>
<feColorMatrix in="SourceAlpha" type="matrix" values="0 0 0 0 0 0 0 0 0 0 0 0 0 0 0 0 0 0 127 0" result="hardAlpha"/>
<feOffset dy="4"/>
<feGaussianBlur stdDeviation="2"/>
<feComposite in2="hardAlpha" operator="arithmetic" k2="-1" k3="1"/>
<feColorMatrix type="matrix" values="0 0 0 0 0 0 0 0 0 0 0 0 0 0 0 0 0 0 0.25 0"/>
<feBlend mode="normal" in2="shape" result="effect2_innerShadow_0_1"/>
</filter>
</defs>
</svg>
