<svg width="667" height="628" viewBox="0 0 667 628" fill="none" xmlns="http://www.w3.org/2000/svg">
<rect width="667" height="628" fill="white"/>
<g filter="url(#filter0_din_0_1)">
<circle cx="353" cy="310" r="310" fill="white"/>
</g>
<path d="M126.674 376.749C126.674 379.937 124.781 382.821 121.855 384.089L80.1817 402.153C74.8991 404.443 69 400.571 69 394.813L69 232.251C69 229.063 70.893 226.179 73.8183 224.911L115.492 206.847C120.775 204.557 126.674 208.429 126.674 214.187L126.674 376.749Z" fill="#1F1F1F"/>
<path d="M155.8 265.603L108.651 305.674C99.7251 290.202 146.874 250.132 155.8 265.603Z" fill="#FFFAFA"/>
<path d="M146.467 232.258C146.467 229.067 148.364 226.18 151.294 224.915L193.161 206.827C198.442 204.545 204.333 208.418 204.333 214.171V376.742C204.333 379.933 202.436 382.82 199.506 384.086L157.639 402.173C152.358 404.455 146.467 400.582 146.467 394.829V232.258Z" fill="#7FBF2F"/>
<path d="M69 316.5L159.533 271V316.5L69 362V316.5Z" fill="#1F1F1F"/>
<path d="M156.267 259C140 259 127.8 274.957 127.8 294.106C127.8 308.468 137.289 318.043 141.356 326.021V334H171.178V326.021C175.244 318.043 184.733 308.468 184.733 294.106C184.733 274.957 172.533 259 156.267 259Z" fill="white"/>
<path d="M155.8 351C164.867 351 171.667 343.766 171.667 335.085C171.667 328.574 166.378 324.234 164.111 320.617V317H147.489V320.617C145.222 324.234 139.933 328.574 139.933 335.085C139.933 343.766 146.733 351 155.8 351Z" fill="white"/>
<path d="M156.267 266C142.816 266 133.4 277.8 133.4 294.025C133.4 305.825 141.471 313.2 145.506 319.1V325H167.027V319.1C171.063 313.2 179.133 305.825 179.133 294.025C179.133 277.8 169.718 266 156.267 266Z" fill="#FFD91A"/>
<path d="M153.933 279.083C158.132 278.53 162.314 279.357 165.559 281.38C168.805 283.404 170.848 286.458 171.239 289.872" stroke="white" stroke-width="3" stroke-linecap="round"/>
<path d="M164.317 328H148.217C147.25 328 146.467 328.796 146.467 329.778C146.467 330.76 147.25 331.556 148.217 331.556H164.317C165.283 331.556 166.067 330.76 166.067 329.778C166.067 328.796 165.283 328 164.317 328Z" fill="#1F1F1F"/>
<path d="M164.317 334.4H148.217C147.25 334.4 146.467 335.196 146.467 336.178C146.467 337.16 147.25 337.956 148.217 337.956H164.317C165.283 337.956 166.067 337.16 166.067 336.178C166.067 335.196 165.283 334.4 164.317 334.4Z" fill="#1F1F1F"/>
<path d="M147.867 340.8H164.667C164.667 345.067 147.867 345.067 147.867 340.8Z" fill="#1F1F1F"/>
<path d="M176.598 256.564L181.973 240.41" stroke="white" stroke-width="8" stroke-linecap="round"/>
<path d="M178.279 253.127L183.597 238" stroke="#FFD91A" stroke-width="4" stroke-linecap="round"/>
<path d="M187.483 264.819L215.775 238" stroke="white" stroke-width="12" stroke-linecap="round"/>
<path d="M188.414 264.182L213.078 242.31" stroke="#FFD91A" stroke-width="8" stroke-linecap="round"/>
<path d="M191.489 281.903L198.545 284.404" stroke="white" stroke-width="10" stroke-linecap="round"/>
<path d="M191.267 282.388L199.76 285.215" stroke="#FFD91A" stroke-width="6" stroke-linecap="round"/>
<path d="M251.258 383C250.327 383 249.699 382.595 249.375 381.785C249.253 381.542 249.192 381.278 249.192 380.995V351.587C249.192 350.656 249.618 350.028 250.468 349.704C250.711 349.623 250.975 349.582 251.258 349.582H259.218C268.089 349.582 273.678 352.762 275.987 359.122C276.757 361.228 277.142 363.658 277.142 366.413C277.142 369.127 276.737 371.516 275.927 373.582C275.157 375.648 274.003 377.37 272.463 378.747C269.344 381.582 264.97 383 259.339 383H251.258ZM253.324 379.719H259.765C264.18 379.719 267.481 378.504 269.668 376.073C271.694 373.886 272.706 370.625 272.706 366.291C272.706 361.835 271.451 358.453 268.939 356.144C266.63 353.957 263.208 352.863 258.671 352.863H253.324V379.719ZM284.876 351.587C284.876 350.615 285.322 349.987 286.213 349.704C286.456 349.623 286.78 349.582 287.185 349.582C287.59 349.582 287.995 349.744 288.4 350.068C288.846 350.392 289.069 350.899 289.069 351.587V381.056C289.069 381.987 288.623 382.595 287.732 382.878C287.489 382.959 287.165 383 286.76 383C286.355 383 285.93 382.838 285.484 382.514C285.079 382.19 284.876 381.704 284.876 381.056V351.587ZM303.916 376.438C304.888 377.613 306.144 378.524 307.683 379.172C309.263 379.82 311.146 380.144 313.334 380.144C315.521 380.144 317.992 379.8 320.746 379.111V368.904H314.124C313.597 368.904 313.192 368.742 312.908 368.418C312.665 368.094 312.544 367.729 312.544 367.324C312.544 366.919 312.665 366.554 312.908 366.23C313.151 365.906 313.556 365.744 314.124 365.744H323.116C323.683 365.744 324.108 365.906 324.392 366.23C324.716 366.554 324.878 366.98 324.878 367.506V379.78C324.878 380.873 324.351 381.562 323.298 381.846C319.774 382.939 316.574 383.486 313.698 383.486C310.822 383.486 308.392 383.162 306.407 382.514C304.422 381.825 302.721 380.772 301.303 379.354C298.265 376.316 296.746 371.962 296.746 366.291C296.746 361.633 298.103 357.684 300.817 354.443C303.774 351 307.926 349.278 313.273 349.278C316.635 349.278 319.754 349.846 322.63 350.98C323.237 351.223 323.541 351.628 323.541 352.195C323.541 352.762 323.399 353.228 323.116 353.592C322.873 353.957 322.529 354.139 322.083 354.139H321.901C321.82 354.139 321.577 354.078 321.172 353.957C320.807 353.835 320.26 353.714 319.531 353.592C318.843 353.43 318.154 353.309 317.465 353.228C315.886 352.985 314.549 352.863 313.455 352.863C309.283 352.863 306.124 354.241 303.977 356.995C303.005 358.251 302.296 359.729 301.85 361.43C301.405 363.132 301.182 364.894 301.182 366.716C301.182 368.539 301.405 370.322 301.85 372.063C302.296 373.765 302.984 375.223 303.916 376.438ZM333.814 351.587C333.814 350.615 334.259 349.987 335.151 349.704C335.394 349.623 335.718 349.582 336.123 349.582C336.528 349.582 336.933 349.744 337.338 350.068C337.784 350.392 338.006 350.899 338.006 351.587V381.056C338.006 381.987 337.561 382.595 336.67 382.878C336.427 382.959 336.102 383 335.697 383C335.292 383 334.867 382.838 334.421 382.514C334.016 382.19 333.814 381.704 333.814 381.056V351.587ZM345.198 352.985C344.631 352.985 344.185 352.823 343.861 352.499C343.577 352.134 343.436 351.729 343.436 351.284C343.436 350.838 343.577 350.453 343.861 350.129C344.185 349.765 344.631 349.582 345.198 349.582H367.557C368.165 349.582 368.61 349.765 368.894 350.129C369.177 350.453 369.319 350.838 369.319 351.284C369.319 351.689 369.177 352.073 368.894 352.438C368.61 352.803 368.165 352.985 367.557 352.985H358.565V380.995C358.565 381.967 358.119 382.595 357.228 382.878C356.985 382.959 356.661 383 356.256 383C355.891 383 355.486 382.838 355.041 382.514C354.595 382.149 354.372 381.643 354.372 380.995V352.985H345.198ZM401.274 380.448C401.355 380.732 401.395 380.995 401.395 381.238C401.395 381.441 401.314 381.663 401.152 381.906C401.031 382.149 400.869 382.352 400.666 382.514C400.261 382.838 399.816 383 399.329 383C398.357 383 397.709 382.595 397.385 381.785L394.408 374.251H377.821L374.843 381.785C374.56 382.595 373.993 383 373.142 383C372.251 383 371.623 382.635 371.259 381.906C371.137 381.663 371.076 381.441 371.076 381.238C371.076 380.995 371.117 380.732 371.198 380.448L382.317 353.228C383.086 351.122 384.018 349.947 385.112 349.704C385.436 349.623 385.8 349.582 386.205 349.582C387.056 349.582 387.684 349.744 388.089 350.068C388.859 350.757 389.507 351.81 390.033 353.228L401.274 380.448ZM379.036 371.091H393.254L386.145 353.046L379.036 371.091ZM409.184 383C408.252 383 407.604 382.595 407.239 381.785C407.118 381.501 407.057 381.218 407.057 380.934V351.527C407.057 350.595 407.503 349.987 408.394 349.704C408.637 349.623 408.961 349.582 409.366 349.582C409.771 349.582 410.176 349.744 410.581 350.068C411.027 350.392 411.249 350.878 411.249 351.527V379.597H426.378C426.986 379.597 427.432 379.78 427.715 380.144C427.999 380.468 428.141 380.853 428.141 381.299C428.141 381.704 427.999 382.089 427.715 382.453C427.432 382.818 426.986 383 426.378 383H409.184ZM450.295 358.028C450.295 358.919 450.558 359.729 451.084 360.458C451.652 361.187 452.381 361.815 453.272 362.342C454.163 362.828 455.176 363.253 456.31 363.618C457.444 363.982 458.639 364.367 459.895 364.772C461.191 365.177 462.426 365.623 463.601 366.109C464.816 366.595 465.89 367.203 466.821 367.932C468.846 369.511 469.859 371.678 469.859 374.433C469.859 375.729 469.535 376.965 468.887 378.139C468.279 379.273 467.409 380.246 466.274 381.056C464.006 382.676 461.029 383.486 457.343 383.486C453.576 383.486 450.436 382.595 447.925 380.813C446.386 379.8 445.576 379.091 445.495 378.686C445.454 378.524 445.434 378.362 445.434 378.2C445.434 377.997 445.474 377.775 445.555 377.532C445.636 377.289 445.738 377.086 445.859 376.924C446.224 376.478 446.548 376.256 446.831 376.256C447.155 376.256 447.459 376.357 447.743 376.559C448.026 376.762 448.35 377.005 448.715 377.289C449.12 377.572 449.606 377.896 450.173 378.261C450.781 378.625 451.449 378.949 452.178 379.233C453.798 379.8 455.358 380.084 456.857 380.084C458.396 380.084 459.652 379.982 460.624 379.78C461.636 379.537 462.507 379.172 463.236 378.686C464.776 377.633 465.545 376.296 465.545 374.676C465.545 371.881 463.52 369.856 459.469 368.6C458.335 368.235 457.14 367.871 455.884 367.506C454.669 367.101 453.454 366.635 452.239 366.109C451.024 365.582 449.95 364.954 449.019 364.225C448.087 363.496 447.338 362.625 446.771 361.613C446.244 360.559 445.981 359.385 445.981 358.089C445.981 356.792 446.305 355.577 446.953 354.443C447.601 353.309 448.452 352.377 449.505 351.648C451.692 350.068 454.386 349.278 457.586 349.278C462.163 349.278 465.869 350.777 468.705 353.775C468.907 353.977 469.009 354.241 469.009 354.565C469.009 354.889 468.968 355.152 468.887 355.354C468.846 355.557 468.765 355.739 468.644 355.901C468.36 356.306 467.976 356.509 467.49 356.509C467.003 356.509 466.477 356.225 465.91 355.658C464.654 354.727 463.601 354.078 462.75 353.714C461.252 353.106 459.652 352.803 457.95 352.803C455.925 352.803 454.203 353.228 452.786 354.078C451.125 355.01 450.295 356.327 450.295 358.028ZM474.76 352.985C474.193 352.985 473.748 352.823 473.424 352.499C473.14 352.134 472.998 351.729 472.998 351.284C472.998 350.838 473.14 350.453 473.424 350.129C473.748 349.765 474.193 349.582 474.76 349.582H497.12C497.727 349.582 498.173 349.765 498.456 350.129C498.74 350.453 498.882 350.838 498.882 351.284C498.882 351.689 498.74 352.073 498.456 352.438C498.173 352.803 497.727 352.985 497.12 352.985H488.127V380.995C488.127 381.967 487.682 382.595 486.791 382.878C486.548 382.959 486.224 383 485.818 383C485.454 383 485.049 382.838 484.603 382.514C484.158 382.149 483.935 381.643 483.935 380.995V352.985H474.76ZM503.92 351.587C503.92 350.615 504.345 349.987 505.196 349.704C505.479 349.623 505.824 349.582 506.229 349.582C506.634 349.582 507.039 349.744 507.444 350.068C507.889 350.392 508.112 350.899 508.112 351.587V371.273C508.112 374.109 509.044 376.337 510.907 377.957C512.487 379.375 514.492 380.084 516.922 380.084C519.353 380.084 521.398 379.375 523.059 377.957C524.922 376.377 525.854 374.149 525.854 371.273V351.587C525.854 350.615 526.3 349.987 527.191 349.704C527.434 349.623 527.738 349.582 528.102 349.582C528.507 349.582 528.912 349.744 529.317 350.068C529.763 350.392 529.986 350.899 529.986 351.587V371.395C529.986 375.203 528.649 378.241 525.976 380.509C523.667 382.494 520.649 383.486 516.922 383.486C513.236 383.486 510.219 382.494 507.869 380.509C505.236 378.241 503.92 375.203 503.92 371.395V351.587ZM540.618 383C539.686 383 539.058 382.595 538.734 381.785C538.613 381.542 538.552 381.278 538.552 380.995V351.587C538.552 350.656 538.977 350.028 539.828 349.704C540.071 349.623 540.334 349.582 540.618 349.582H548.577C557.448 349.582 563.038 352.762 565.347 359.122C566.116 361.228 566.501 363.658 566.501 366.413C566.501 369.127 566.096 371.516 565.286 373.582C564.516 375.648 563.362 377.37 561.823 378.747C558.704 381.582 554.329 383 548.699 383H540.618ZM542.683 379.719H549.124C553.539 379.719 556.84 378.504 559.028 376.073C561.053 373.886 562.066 370.625 562.066 366.291C562.066 361.835 560.81 358.453 558.299 356.144C555.99 353.957 552.567 352.863 548.03 352.863H542.683V379.719ZM574.236 351.587C574.236 350.615 574.681 349.987 575.572 349.704C575.816 349.623 576.14 349.582 576.545 349.582C576.95 349.582 577.355 349.744 577.76 350.068C578.205 350.392 578.428 350.899 578.428 351.587V381.056C578.428 381.987 577.983 382.595 577.091 382.878C576.848 382.959 576.524 383 576.119 383C575.714 383 575.289 382.838 574.843 382.514C574.438 382.19 574.236 381.704 574.236 381.056V351.587ZM591.331 361.43C590.926 363.132 590.723 364.792 590.723 366.413C590.723 368.033 590.926 369.694 591.331 371.395C591.777 373.096 592.445 374.595 593.336 375.891C594.268 377.147 595.442 378.18 596.86 378.99C598.278 379.759 599.979 380.144 601.964 380.144C603.949 380.144 605.65 379.759 607.068 378.99C608.485 378.18 609.66 377.147 610.592 375.891C611.523 374.595 612.192 373.096 612.597 371.395C613.002 369.694 613.204 368.033 613.204 366.413C613.204 364.792 613.002 363.132 612.597 361.43C612.192 359.729 611.523 358.23 610.592 356.934C609.66 355.638 608.485 354.605 607.068 353.835C605.65 353.066 603.949 352.681 601.964 352.681C599.979 352.681 598.278 353.066 596.86 353.835C595.442 354.605 594.268 355.638 593.336 356.934C592.445 358.23 591.777 359.729 591.331 361.43ZM586.227 366.413C586.227 364.023 586.572 361.754 587.26 359.608C587.949 357.461 588.961 355.618 590.298 354.078C593.134 350.878 597.022 349.278 601.964 349.278C606.946 349.278 610.835 350.878 613.63 354.078C614.926 355.618 615.918 357.461 616.607 359.608C617.296 361.754 617.64 364.023 617.64 366.413C617.64 368.803 617.296 371.071 616.607 373.218C615.918 375.365 614.926 377.208 613.63 378.747C610.835 381.906 606.946 383.486 601.964 383.486C596.982 383.486 593.093 381.906 590.298 378.747C588.961 377.208 587.949 375.365 587.26 373.218C586.572 371.071 586.227 368.803 586.227 366.413Z" fill="#2B2B2B"/>
<path d="M247.68 328V234.304H265.6V274.496H297.728V234.304H315.648V328H297.728V290.88H265.6V328H247.68ZM326.111 294.976C326.111 287.979 326.623 282.219 327.647 277.696C328.671 273.173 330.463 269.547 333.023 266.816C335.583 264.085 338.74 262.165 342.495 261.056C346.335 259.947 351.199 259.392 357.087 259.392C368.778 259.392 376.842 261.952 381.279 267.072C385.802 272.192 388.063 281.493 388.063 294.976C388.063 307.691 385.844 316.48 381.407 321.344C377.055 326.208 368.948 328.64 357.087 328.64C352.394 328.64 348.298 328.256 344.799 327.488C341.386 326.635 338.442 325.397 335.967 323.776C333.578 322.155 331.658 320.021 330.207 317.376C328.756 314.645 327.69 311.488 327.007 307.904C326.41 304.235 326.111 299.925 326.111 294.976ZM344.031 294.976C344.031 299.328 344.244 302.784 344.671 305.344C345.098 307.904 345.866 309.867 346.975 311.232C348.17 312.512 349.492 313.323 350.943 313.664C352.394 314.005 354.442 314.176 357.087 314.176C359.391 314.176 361.14 314.091 362.335 313.92C363.615 313.749 364.81 313.323 365.919 312.64C367.114 311.957 367.967 310.891 368.479 309.44C369.076 307.989 369.503 306.155 369.759 303.936C370.015 301.632 370.143 298.645 370.143 294.976C370.143 291.051 370.015 287.893 369.759 285.504C369.588 283.029 369.247 280.981 368.735 279.36C368.223 277.653 367.412 276.459 366.303 275.776C365.194 275.008 363.956 274.496 362.591 274.24C361.226 273.899 359.391 273.728 357.087 273.728C355.21 273.728 353.674 273.813 352.479 273.984C351.284 274.155 350.132 274.539 349.023 275.136C347.914 275.648 347.06 276.373 346.463 277.312C345.951 278.165 345.482 279.403 345.055 281.024C344.628 282.645 344.33 284.565 344.159 286.784C344.074 289.003 344.031 291.733 344.031 294.976ZM398.76 303.808V227.776H416.68V300.992C416.68 305.515 417.149 308.672 418.088 310.464C419.027 312.256 420.52 313.536 422.568 314.304C427.688 316.096 430.547 316.992 431.144 316.992V328H416.296C413.48 328 411.005 327.573 408.872 326.72C406.739 325.867 404.904 324.544 403.368 322.752C401.832 320.875 400.68 318.357 399.912 315.2C399.144 312.043 398.76 308.245 398.76 303.808Z" fill="#2B2B2B"/>
<path d="M437.477 234.304H456.549L477.413 304.448L499.429 234.304H518.501L487.653 328H466.917L437.477 234.304ZM524.59 310.72V304.32C524.59 301.675 524.931 299.285 525.614 297.152C526.382 295.019 527.534 293.056 529.07 291.264C530.606 289.472 532.654 288.107 535.214 287.168C537.859 286.144 540.974 285.632 544.558 285.632C547.886 285.632 551.171 285.675 554.414 285.76C557.742 285.76 561.113 285.717 564.526 285.632C564.611 282.816 564.611 281.365 564.526 281.28C564.526 279.488 564.313 278.037 563.886 276.928C563.545 275.819 562.947 274.965 562.094 274.368C561.241 273.771 560.302 273.387 559.278 273.216C558.254 273.045 556.974 272.96 555.438 272.96C549.891 272.96 540.377 273.429 526.894 274.368V263.36C534.489 260.373 544.814 258.837 557.87 258.752C565.721 258.752 571.779 260.416 576.046 263.744C580.313 266.987 582.446 272.619 582.446 280.64V328H568.238L564.526 320.576C564.185 321.173 563.075 322.112 561.198 323.392C559.406 324.587 556.846 325.824 553.518 327.104C550.19 328.299 546.947 328.853 543.79 328.768C537.646 328.597 532.91 326.763 529.582 323.264C526.254 319.68 524.59 315.499 524.59 310.72ZM542.51 308.16C542.51 310.72 543.065 312.427 544.174 313.28C545.283 314.048 546.862 314.432 548.91 314.432C549.934 314.432 551.001 314.347 552.11 314.176C553.219 313.92 554.243 313.664 555.182 313.408C556.206 313.067 557.187 312.725 558.126 312.384C559.065 311.957 559.918 311.573 560.686 311.232C561.454 310.805 562.094 310.464 562.606 310.208C563.203 309.867 563.673 309.611 564.014 309.44C564.355 309.184 564.526 309.056 564.526 309.056V296.64L548.014 297.92C546.905 298.005 545.966 298.304 545.198 298.816C544.43 299.243 543.833 299.797 543.406 300.48C543.065 301.163 542.809 301.845 542.638 302.528C542.553 303.211 542.51 303.979 542.51 304.832V308.16ZM590.965 283.584V277.696C590.965 265.493 596.853 259.392 608.629 259.392C628.853 259.392 640.97 260.544 644.981 262.848V274.112H614.133C613.024 274.112 612.085 274.197 611.317 274.368C610.634 274.539 610.122 274.837 609.781 275.264C609.44 275.691 609.184 276.16 609.013 276.672C608.928 277.184 608.885 277.909 608.885 278.848V281.92C608.885 283.883 609.312 285.12 610.165 285.632C611.018 286.059 612.341 286.272 614.133 286.272H630.261C633.418 286.272 636.149 286.741 638.453 287.68C640.842 288.533 642.72 289.771 644.085 291.392C645.536 293.013 646.602 294.891 647.285 297.024C647.968 299.072 648.309 301.333 648.309 303.808V310.848C648.309 321.088 644 326.933 635.381 328.384C634.186 328.555 632.949 328.64 631.669 328.64C610.165 328.64 597.536 327.403 593.781 324.928V313.792H625.909C628.896 313.792 630.389 312.341 630.389 309.44V306.24C630.389 305.216 630.261 304.405 630.005 303.808C629.834 303.211 629.408 302.741 628.725 302.4C628.042 302.059 627.104 301.888 625.909 301.888H610.037C603.808 301.888 599.072 300.437 595.829 297.536C592.586 294.635 590.965 289.984 590.965 283.584Z" fill="#79B928"/>
<defs>
<filter id="filter0_din_0_1" x="39" y="0" width="628" height="628" filterUnits="userSpaceOnUse" color-interpolation-filters="sRGB">
<feFlood flood-opacity="0" result="BackgroundImageFix"/>
<feColorMatrix in="SourceAlpha" type="matrix" values="0 0 0 0 0 0 0 0 0 0 0 0 0 0 0 0 0 0 127 0" result="hardAlpha"/>
<feOffset dy="4"/>
<feGaussianBlur stdDeviation="2"/>
<feComposite in2="hardAlpha" operator="out"/>
<feColorMatrix type="matrix" values="0 0 0 0 0 0 0 0 0 0 0 0 0 0 0 0 0 0 0.25 0"/>
<feBlend mode="normal" in2="BackgroundImageFix" result="effect1_dropShadow_0_1"/>
<feBlend mode="normal" in="SourceGraphic" in2="BackgroundImageFix" result="shape"/>
<feColorMatrix in="SourceAlpha" type="matrix" values="0 0 0 0 0 0 0 0 0 0 0 0 0 0 0 0 0 0 127 0" result="hardAlpha"/>
<feOffset dy="4"/>
<feGaussianBlur stdDeviation="2"/>
<feComposite in2="hardAlpha" operator="arithmetic" k2="-1" k3="1"/>
<feColorMatrix type="matrix" values="0 0 0 0 0 0 0 0 0 0 0 0 0 0 0 0 0 0 0.25 0"/>
<feBlend mode="normal" in2="shape" result="effect2_innerShadow_0_1"/>
<feTurbulence type="fractalNoise" baseFrequency="0.25 0.25" stitchTiles="stitch" numOctaves="3" result="noise" seed="2435" />
<feComponentTransfer in="noise" result="coloredNoise1">
<feFuncR type="linear" slope="2" intercept="-0.5" />
<feFuncG type="linear" slope="2" intercept="-0.5" />
<feFuncB type="linear" slope="2" intercept="-0.5" />
<feFuncA type="discrete" tableValues="1 1 1 1 1 1 1 1 1 1 1 1 1 1 1 1 1 1 1 1 1 1 1 1 1 1 1 1 1 1 1 1 1 1 1 1 1 1 1 1 1 1 1 1 1 1 1 1 1 1 1 0 0 0 0 0 0 0 0 0 0 0 0 0 0 0 0 0 0 0 0 0 0 0 0 0 0 0 0 0 0 0 0 0 0 0 0 0 0 0 0 0 0 0 0 0 0 0 0 0 "/>
</feComponentTransfer>
<feComposite operator="in" in2="effect2_innerShadow_0_1" in="coloredNoise1" result="noise1Clipped" />
<feComponentTransfer in="noise1Clipped" result="color1">
<feFuncA type="table" tableValues="0 0.15" />
</feComponentTransfer>
<feMerge result="effect3_noise_0_1">
<feMergeNode in="effect2_innerShadow_0_1" />
<feMergeNode in="color1" />
</feMerge>
<feBlend mode="normal" in="effect3_noise_0_1" in2="effect1_dropShadow_0_1" result="effect3_noise_0_1"/>
</filter>
</defs>
</svg>
