<svg width="649" height="300" viewBox="0 0 649 300" fill="none" xmlns="http://www.w3.org/2000/svg">
<rect width="649" height="300" fill="white"/>
<path d="M126.674 221.749C126.674 224.937 124.781 227.821 121.855 229.089L80.1817 247.153C74.8991 249.443 69 245.571 69 239.813L69 77.2515C69 74.0633 70.8931 71.1794 73.8183 69.9114L115.492 51.847C120.775 49.5571 126.674 53.4295 126.674 59.187L126.674 221.749Z" fill="#1F1F1F"/>
<path d="M155.8 110.603L108.651 150.674C99.7251 135.202 146.874 95.1322 155.8 110.603Z" fill="#FFFAFA"/>
<path d="M146.467 77.2585C146.467 74.0667 148.364 71.1804 151.294 69.9145L193.161 51.827C198.442 49.5452 204.333 53.4175 204.333 59.1709V221.742C204.333 224.933 202.436 227.82 199.506 229.086L157.639 247.173C152.358 249.455 146.467 245.582 146.467 239.829V77.2585Z" fill="#7FBF2F"/>
<path d="M69 161.5L159.533 116V161.5L69 207V161.5Z" fill="#1F1F1F"/>
<path d="M156.267 104C140 104 127.8 119.957 127.8 139.106C127.8 153.468 137.289 163.043 141.356 171.021V179H171.178V171.021C175.244 163.043 184.733 153.468 184.733 139.106C184.733 119.957 172.533 104 156.267 104Z" fill="white"/>
<path d="M155.8 196C164.867 196 171.667 188.766 171.667 180.085C171.667 173.574 166.378 169.234 164.111 165.617V162H147.489V165.617C145.222 169.234 139.933 173.574 139.933 180.085C139.933 188.766 146.733 196 155.8 196Z" fill="white"/>
<path d="M156.267 111C142.816 111 133.4 122.8 133.4 139.025C133.4 150.825 141.471 158.2 145.506 164.1V170H167.027V164.1C171.063 158.2 179.133 150.825 179.133 139.025C179.133 122.8 169.718 111 156.267 111Z" fill="#FFD91A"/>
<path d="M153.933 124.083C158.132 123.53 162.314 124.357 165.559 126.38C168.805 128.404 170.848 131.458 171.239 134.872" stroke="white" stroke-width="3" stroke-linecap="round"/>
<path d="M164.317 173H148.217C147.25 173 146.467 173.796 146.467 174.778C146.467 175.76 147.25 176.556 148.217 176.556H164.317C165.283 176.556 166.067 175.76 166.067 174.778C166.067 173.796 165.283 173 164.317 173Z" fill="#1F1F1F"/>
<path d="M164.317 179.4H148.217C147.25 179.4 146.467 180.196 146.467 181.178C146.467 182.16 147.25 182.956 148.217 182.956H164.317C165.283 182.956 166.067 182.16 166.067 181.178C166.067 180.196 165.283 179.4 164.317 179.4Z" fill="#1F1F1F"/>
<path d="M147.867 185.8H164.667C164.667 190.067 147.867 190.067 147.867 185.8Z" fill="#1F1F1F"/>
<path d="M176.598 101.564L181.973 85.41" stroke="white" stroke-width="8" stroke-linecap="round"/>
<path d="M178.279 98.1274L183.597 83" stroke="#FFD91A" stroke-width="4" stroke-linecap="round"/>
<path d="M187.483 109.819L215.775 83" stroke="white" stroke-width="12" stroke-linecap="round"/>
<path d="M188.414 109.182L213.078 87.31" stroke="#FFD91A" stroke-width="8" stroke-linecap="round"/>
<path d="M191.489 126.903L198.545 129.404" stroke="white" stroke-width="10" stroke-linecap="round"/>
<path d="M191.267 127.388L199.76 130.215" stroke="#FFD91A" stroke-width="6" stroke-linecap="round"/>
<path d="M251.258 228C250.327 228 249.699 227.595 249.375 226.785C249.253 226.542 249.192 226.278 249.192 225.995V196.587C249.192 195.656 249.618 195.028 250.468 194.704C250.711 194.623 250.975 194.582 251.258 194.582H259.218C268.089 194.582 273.678 197.762 275.987 204.122C276.757 206.228 277.142 208.658 277.142 211.413C277.142 214.127 276.737 216.516 275.927 218.582C275.157 220.648 274.003 222.37 272.463 223.747C269.344 226.582 264.97 228 259.339 228H251.258ZM253.324 224.719H259.765C264.18 224.719 267.481 223.504 269.668 221.073C271.694 218.886 272.706 215.625 272.706 211.291C272.706 206.835 271.451 203.453 268.939 201.144C266.63 198.957 263.208 197.863 258.671 197.863H253.324V224.719ZM284.876 196.587C284.876 195.615 285.322 194.987 286.213 194.704C286.456 194.623 286.78 194.582 287.185 194.582C287.59 194.582 287.995 194.744 288.4 195.068C288.846 195.392 289.069 195.899 289.069 196.587V226.056C289.069 226.987 288.623 227.595 287.732 227.878C287.489 227.959 287.165 228 286.76 228C286.355 228 285.93 227.838 285.484 227.514C285.079 227.19 284.876 226.704 284.876 226.056V196.587ZM303.916 221.438C304.888 222.613 306.144 223.524 307.683 224.172C309.263 224.82 311.146 225.144 313.334 225.144C315.521 225.144 317.992 224.8 320.746 224.111V213.904H314.124C313.597 213.904 313.192 213.742 312.908 213.418C312.665 213.094 312.544 212.729 312.544 212.324C312.544 211.919 312.665 211.554 312.908 211.23C313.151 210.906 313.556 210.744 314.124 210.744H323.116C323.683 210.744 324.108 210.906 324.392 211.23C324.716 211.554 324.878 211.98 324.878 212.506V224.78C324.878 225.873 324.351 226.562 323.298 226.846C319.774 227.939 316.574 228.486 313.698 228.486C310.822 228.486 308.392 228.162 306.407 227.514C304.422 226.825 302.721 225.772 301.303 224.354C298.265 221.316 296.746 216.962 296.746 211.291C296.746 206.633 298.103 202.684 300.817 199.443C303.774 196 307.926 194.278 313.273 194.278C316.635 194.278 319.754 194.846 322.63 195.98C323.237 196.223 323.541 196.628 323.541 197.195C323.541 197.762 323.399 198.228 323.116 198.592C322.873 198.957 322.529 199.139 322.083 199.139H321.901C321.82 199.139 321.577 199.078 321.172 198.957C320.807 198.835 320.26 198.714 319.531 198.592C318.843 198.43 318.154 198.309 317.465 198.228C315.886 197.985 314.549 197.863 313.455 197.863C309.283 197.863 306.124 199.241 303.977 201.995C303.005 203.251 302.296 204.729 301.85 206.43C301.405 208.132 301.182 209.894 301.182 211.716C301.182 213.539 301.405 215.322 301.85 217.063C302.296 218.765 302.984 220.223 303.916 221.438ZM333.814 196.587C333.814 195.615 334.259 194.987 335.151 194.704C335.394 194.623 335.718 194.582 336.123 194.582C336.528 194.582 336.933 194.744 337.338 195.068C337.784 195.392 338.006 195.899 338.006 196.587V226.056C338.006 226.987 337.561 227.595 336.67 227.878C336.427 227.959 336.102 228 335.697 228C335.292 228 334.867 227.838 334.421 227.514C334.016 227.19 333.814 226.704 333.814 226.056V196.587ZM345.198 197.985C344.631 197.985 344.185 197.823 343.861 197.499C343.577 197.134 343.436 196.729 343.436 196.284C343.436 195.838 343.577 195.453 343.861 195.129C344.185 194.765 344.631 194.582 345.198 194.582H367.557C368.165 194.582 368.61 194.765 368.894 195.129C369.177 195.453 369.319 195.838 369.319 196.284C369.319 196.689 369.177 197.073 368.894 197.438C368.61 197.803 368.165 197.985 367.557 197.985H358.565V225.995C358.565 226.967 358.119 227.595 357.228 227.878C356.985 227.959 356.661 228 356.256 228C355.891 228 355.486 227.838 355.041 227.514C354.595 227.149 354.372 226.643 354.372 225.995V197.985H345.198ZM401.274 225.448C401.355 225.732 401.395 225.995 401.395 226.238C401.395 226.441 401.314 226.663 401.152 226.906C401.031 227.149 400.869 227.352 400.666 227.514C400.261 227.838 399.816 228 399.329 228C398.357 228 397.709 227.595 397.385 226.785L394.408 219.251H377.821L374.843 226.785C374.56 227.595 373.993 228 373.142 228C372.251 228 371.623 227.635 371.259 226.906C371.137 226.663 371.076 226.441 371.076 226.238C371.076 225.995 371.117 225.732 371.198 225.448L382.317 198.228C383.086 196.122 384.018 194.947 385.112 194.704C385.436 194.623 385.8 194.582 386.205 194.582C387.056 194.582 387.684 194.744 388.089 195.068C388.859 195.757 389.507 196.81 390.033 198.228L401.274 225.448ZM379.036 216.091H393.254L386.145 198.046L379.036 216.091ZM409.184 228C408.252 228 407.604 227.595 407.239 226.785C407.118 226.501 407.057 226.218 407.057 225.934V196.527C407.057 195.595 407.503 194.987 408.394 194.704C408.637 194.623 408.961 194.582 409.366 194.582C409.771 194.582 410.176 194.744 410.581 195.068C411.027 195.392 411.249 195.878 411.249 196.527V224.597H426.378C426.986 224.597 427.432 224.78 427.715 225.144C427.999 225.468 428.141 225.853 428.141 226.299C428.141 226.704 427.999 227.089 427.715 227.453C427.432 227.818 426.986 228 426.378 228H409.184ZM450.295 203.028C450.295 203.919 450.558 204.729 451.084 205.458C451.652 206.187 452.381 206.815 453.272 207.342C454.163 207.828 455.176 208.253 456.31 208.618C457.444 208.982 458.639 209.367 459.895 209.772C461.191 210.177 462.426 210.623 463.601 211.109C464.816 211.595 465.89 212.203 466.821 212.932C468.846 214.511 469.859 216.678 469.859 219.433C469.859 220.729 469.535 221.965 468.887 223.139C468.279 224.273 467.409 225.246 466.274 226.056C464.006 227.676 461.029 228.486 457.343 228.486C453.576 228.486 450.436 227.595 447.925 225.813C446.386 224.8 445.576 224.091 445.495 223.686C445.454 223.524 445.434 223.362 445.434 223.2C445.434 222.997 445.474 222.775 445.555 222.532C445.636 222.289 445.738 222.086 445.859 221.924C446.224 221.478 446.548 221.256 446.831 221.256C447.155 221.256 447.459 221.357 447.743 221.559C448.026 221.762 448.35 222.005 448.715 222.289C449.12 222.572 449.606 222.896 450.173 223.261C450.781 223.625 451.449 223.949 452.178 224.233C453.798 224.8 455.358 225.084 456.857 225.084C458.396 225.084 459.652 224.982 460.624 224.78C461.636 224.537 462.507 224.172 463.236 223.686C464.776 222.633 465.545 221.296 465.545 219.676C465.545 216.881 463.52 214.856 459.469 213.6C458.335 213.235 457.14 212.871 455.884 212.506C454.669 212.101 453.454 211.635 452.239 211.109C451.024 210.582 449.95 209.954 449.019 209.225C448.087 208.496 447.338 207.625 446.771 206.613C446.244 205.559 445.981 204.385 445.981 203.089C445.981 201.792 446.305 200.577 446.953 199.443C447.601 198.309 448.452 197.377 449.505 196.648C451.692 195.068 454.386 194.278 457.586 194.278C462.163 194.278 465.869 195.777 468.705 198.775C468.907 198.977 469.009 199.241 469.009 199.565C469.009 199.889 468.968 200.152 468.887 200.354C468.846 200.557 468.765 200.739 468.644 200.901C468.36 201.306 467.976 201.509 467.49 201.509C467.003 201.509 466.477 201.225 465.91 200.658C464.654 199.727 463.601 199.078 462.75 198.714C461.252 198.106 459.652 197.803 457.95 197.803C455.925 197.803 454.203 198.228 452.786 199.078C451.125 200.01 450.295 201.327 450.295 203.028ZM474.76 197.985C474.193 197.985 473.748 197.823 473.424 197.499C473.14 197.134 472.998 196.729 472.998 196.284C472.998 195.838 473.14 195.453 473.424 195.129C473.748 194.765 474.193 194.582 474.76 194.582H497.12C497.727 194.582 498.173 194.765 498.456 195.129C498.74 195.453 498.882 195.838 498.882 196.284C498.882 196.689 498.74 197.073 498.456 197.438C498.173 197.803 497.727 197.985 497.12 197.985H488.127V225.995C488.127 226.967 487.682 227.595 486.791 227.878C486.548 227.959 486.224 228 485.818 228C485.454 228 485.049 227.838 484.603 227.514C484.158 227.149 483.935 226.643 483.935 225.995V197.985H474.76ZM503.92 196.587C503.92 195.615 504.345 194.987 505.196 194.704C505.479 194.623 505.824 194.582 506.229 194.582C506.634 194.582 507.039 194.744 507.444 195.068C507.889 195.392 508.112 195.899 508.112 196.587V216.273C508.112 219.109 509.044 221.337 510.907 222.957C512.487 224.375 514.492 225.084 516.922 225.084C519.353 225.084 521.398 224.375 523.059 222.957C524.922 221.377 525.854 219.149 525.854 216.273V196.587C525.854 195.615 526.3 194.987 527.191 194.704C527.434 194.623 527.738 194.582 528.102 194.582C528.507 194.582 528.912 194.744 529.317 195.068C529.763 195.392 529.986 195.899 529.986 196.587V216.395C529.986 220.203 528.649 223.241 525.976 225.509C523.667 227.494 520.649 228.486 516.922 228.486C513.236 228.486 510.219 227.494 507.869 225.509C505.236 223.241 503.92 220.203 503.92 216.395V196.587ZM540.618 228C539.686 228 539.058 227.595 538.734 226.785C538.613 226.542 538.552 226.278 538.552 225.995V196.587C538.552 195.656 538.977 195.028 539.828 194.704C540.071 194.623 540.334 194.582 540.618 194.582H548.577C557.448 194.582 563.038 197.762 565.347 204.122C566.116 206.228 566.501 208.658 566.501 211.413C566.501 214.127 566.096 216.516 565.286 218.582C564.516 220.648 563.362 222.37 561.823 223.747C558.704 226.582 554.329 228 548.699 228H540.618ZM542.683 224.719H549.124C553.539 224.719 556.84 223.504 559.028 221.073C561.053 218.886 562.066 215.625 562.066 211.291C562.066 206.835 560.81 203.453 558.299 201.144C555.99 198.957 552.567 197.863 548.03 197.863H542.683V224.719ZM574.236 196.587C574.236 195.615 574.681 194.987 575.572 194.704C575.816 194.623 576.14 194.582 576.545 194.582C576.95 194.582 577.355 194.744 577.76 195.068C578.205 195.392 578.428 195.899 578.428 196.587V226.056C578.428 226.987 577.983 227.595 577.091 227.878C576.848 227.959 576.524 228 576.119 228C575.714 228 575.289 227.838 574.843 227.514C574.438 227.19 574.236 226.704 574.236 226.056V196.587ZM591.331 206.43C590.926 208.132 590.723 209.792 590.723 211.413C590.723 213.033 590.926 214.694 591.331 216.395C591.777 218.096 592.445 219.595 593.336 220.891C594.268 222.147 595.442 223.18 596.86 223.99C598.278 224.759 599.979 225.144 601.964 225.144C603.949 225.144 605.65 224.759 607.068 223.99C608.485 223.18 609.66 222.147 610.592 220.891C611.523 219.595 612.192 218.096 612.597 216.395C613.002 214.694 613.204 213.033 613.204 211.413C613.204 209.792 613.002 208.132 612.597 206.43C612.192 204.729 611.523 203.23 610.592 201.934C609.66 200.638 608.485 199.605 607.068 198.835C605.65 198.066 603.949 197.681 601.964 197.681C599.979 197.681 598.278 198.066 596.86 198.835C595.442 199.605 594.268 200.638 593.336 201.934C592.445 203.23 591.777 204.729 591.331 206.43ZM586.227 211.413C586.227 209.023 586.572 206.754 587.26 204.608C587.949 202.461 588.961 200.618 590.298 199.078C593.134 195.878 597.022 194.278 601.964 194.278C606.946 194.278 610.835 195.878 613.63 199.078C614.926 200.618 615.918 202.461 616.607 204.608C617.296 206.754 617.64 209.023 617.64 211.413C617.64 213.803 617.296 216.071 616.607 218.218C615.918 220.365 614.926 222.208 613.63 223.747C610.835 226.906 606.946 228.486 601.964 228.486C596.982 228.486 593.093 226.906 590.298 223.747C588.961 222.208 587.949 220.365 587.26 218.218C586.572 216.071 586.227 213.803 586.227 211.413Z" fill="#707070"/>
<path d="M247.68 173V79.304H265.6V119.496H297.728V79.304H315.648V173H297.728V135.88H265.6V173H247.68ZM326.111 139.976C326.111 132.979 326.623 127.219 327.647 122.696C328.671 118.173 330.463 114.547 333.023 111.816C335.583 109.085 338.74 107.165 342.495 106.056C346.335 104.947 351.199 104.392 357.087 104.392C368.778 104.392 376.842 106.952 381.279 112.072C385.802 117.192 388.063 126.493 388.063 139.976C388.063 152.691 385.844 161.48 381.407 166.344C377.055 171.208 368.948 173.64 357.087 173.64C352.394 173.64 348.298 173.256 344.799 172.488C341.386 171.635 338.442 170.397 335.967 168.776C333.578 167.155 331.658 165.021 330.207 162.376C328.756 159.645 327.69 156.488 327.007 152.904C326.41 149.235 326.111 144.925 326.111 139.976ZM344.031 139.976C344.031 144.328 344.244 147.784 344.671 150.344C345.098 152.904 345.866 154.867 346.975 156.232C348.17 157.512 349.492 158.323 350.943 158.664C352.394 159.005 354.442 159.176 357.087 159.176C359.391 159.176 361.14 159.091 362.335 158.92C363.615 158.749 364.81 158.323 365.919 157.64C367.114 156.957 367.967 155.891 368.479 154.44C369.076 152.989 369.503 151.155 369.759 148.936C370.015 146.632 370.143 143.645 370.143 139.976C370.143 136.051 370.015 132.893 369.759 130.504C369.588 128.029 369.247 125.981 368.735 124.36C368.223 122.653 367.412 121.459 366.303 120.776C365.194 120.008 363.956 119.496 362.591 119.24C361.226 118.899 359.391 118.728 357.087 118.728C355.21 118.728 353.674 118.813 352.479 118.984C351.284 119.155 350.132 119.539 349.023 120.136C347.914 120.648 347.06 121.373 346.463 122.312C345.951 123.165 345.482 124.403 345.055 126.024C344.628 127.645 344.33 129.565 344.159 131.784C344.074 134.003 344.031 136.733 344.031 139.976ZM398.76 148.808V72.776H416.68V145.992C416.68 150.515 417.149 153.672 418.088 155.464C419.027 157.256 420.52 158.536 422.568 159.304C427.688 161.096 430.547 161.992 431.144 161.992V173H416.296C413.48 173 411.005 172.573 408.872 171.72C406.739 170.867 404.904 169.544 403.368 167.752C401.832 165.875 400.68 163.357 399.912 160.2C399.144 157.043 398.76 153.245 398.76 148.808Z" fill="#2B2B2B"/>
<path d="M437.477 79.304H456.549L477.413 149.448L499.429 79.304H518.501L487.653 173H466.917L437.477 79.304ZM524.59 155.72V149.32C524.59 146.675 524.931 144.285 525.614 142.152C526.382 140.019 527.534 138.056 529.07 136.264C530.606 134.472 532.654 133.107 535.214 132.168C537.859 131.144 540.974 130.632 544.558 130.632C547.886 130.632 551.171 130.675 554.414 130.76C557.742 130.76 561.113 130.717 564.526 130.632C564.611 127.816 564.611 126.365 564.526 126.28C564.526 124.488 564.313 123.037 563.886 121.928C563.545 120.819 562.947 119.965 562.094 119.368C561.241 118.771 560.302 118.387 559.278 118.216C558.254 118.045 556.974 117.96 555.438 117.96C549.891 117.96 540.377 118.429 526.894 119.368V108.36C534.489 105.373 544.814 103.837 557.87 103.752C565.721 103.752 571.779 105.416 576.046 108.744C580.313 111.987 582.446 117.619 582.446 125.64V173H568.238L564.526 165.576C564.185 166.173 563.075 167.112 561.198 168.392C559.406 169.587 556.846 170.824 553.518 172.104C550.19 173.299 546.947 173.853 543.79 173.768C537.646 173.597 532.91 171.763 529.582 168.264C526.254 164.68 524.59 160.499 524.59 155.72ZM542.51 153.16C542.51 155.72 543.065 157.427 544.174 158.28C545.283 159.048 546.862 159.432 548.91 159.432C549.934 159.432 551.001 159.347 552.11 159.176C553.219 158.92 554.243 158.664 555.182 158.408C556.206 158.067 557.187 157.725 558.126 157.384C559.065 156.957 559.918 156.573 560.686 156.232C561.454 155.805 562.094 155.464 562.606 155.208C563.203 154.867 563.673 154.611 564.014 154.44C564.355 154.184 564.526 154.056 564.526 154.056V141.64L548.014 142.92C546.905 143.005 545.966 143.304 545.198 143.816C544.43 144.243 543.833 144.797 543.406 145.48C543.065 146.163 542.809 146.845 542.638 147.528C542.553 148.211 542.51 148.979 542.51 149.832V153.16ZM590.965 128.584V122.696C590.965 110.493 596.853 104.392 608.629 104.392C628.853 104.392 640.97 105.544 644.981 107.848V119.112H614.133C613.024 119.112 612.085 119.197 611.317 119.368C610.634 119.539 610.122 119.837 609.781 120.264C609.44 120.691 609.184 121.16 609.013 121.672C608.928 122.184 608.885 122.909 608.885 123.848V126.92C608.885 128.883 609.312 130.12 610.165 130.632C611.018 131.059 612.341 131.272 614.133 131.272H630.261C633.418 131.272 636.149 131.741 638.453 132.68C640.842 133.533 642.72 134.771 644.085 136.392C645.536 138.013 646.602 139.891 647.285 142.024C647.968 144.072 648.309 146.333 648.309 148.808V155.848C648.309 166.088 644 171.933 635.381 173.384C634.186 173.555 632.949 173.64 631.669 173.64C610.165 173.64 597.536 172.403 593.781 169.928V158.792H625.909C628.896 158.792 630.389 157.341 630.389 154.44V151.24C630.389 150.216 630.261 149.405 630.005 148.808C629.834 148.211 629.408 147.741 628.725 147.4C628.042 147.059 627.104 146.888 625.909 146.888H610.037C603.808 146.888 599.072 145.437 595.829 142.536C592.586 139.635 590.965 134.984 590.965 128.584Z" fill="#79B928"/>
</svg>
